<?xml version="1.0" standalone="no"?>
<svg version="1.0" xmlns="http://www.w3.org/2000/svg"
 width="1024.000000pt" height="1024.000000pt" viewBox="0 0 1024.000000 1024.000000"
 preserveAspectRatio="xMidYMid meet">
<metadata>
Generated from Natural Earth-derived GeoJSON for Sudan (SDN), excluding South Sudan.
</metadata>
<g fill="#000000" stroke="none">
<path fill-rule="evenodd" d="M85.11 775.56 L87.39 767.38 L87.76 766.8 L88.68 765.8 L88.84 765.17 L88.87 763.99 L89.06 762.84 L89.42 761.8 L90.4 759.76 L90.66 758.73 L90.55 757.04 L90.5 756.28 L89.02 751.96 L88.24 747.84 L87.4 747.14 L86.04 747.1 L80.51 747.68 L79.93 747.43 L79.91 745.68 L79.75 745.15 L78.25 743.77 L73.58 742.21 L71.58 741.23 L69.5 739.27 L67.72 736.8 L66.55 734.07 L66.28 731.29 L69.53 713.39 L70.55 710.44 L70.73 709.42 L70.66 708.51 L70.37 708.23 L69.88 709.07 L69.1 708.6 L66.83 709 L63.05 710.17 L62.42 710.65 L62.07 710.83 L61.7 710.98 L63.19 704.59 L63.25 703.88 L63.2 703.17 L63.05 702.48 L58.78 689.51 L56.86 686.54 L56.74 685.83 L58.08 683.92 L60.97 677.23 L60.21 676.49 L54.26 674.31 L46.98 669.55 L45.32 671.98 L43.45 673.73 L41.23 674.95 L38.49 675.74 L36.22 676.05 L33.75 676.03 L31.35 675.58 L29.31 674.6 L28.11 673.44 L25.83 669.22 L24.25 667.28 L24 666.62 L24.14 666.26 L25.07 664.45 L26.53 660.11 L31.3 651.19 L32.99 648.92 L34.98 647.04 L36.01 646.48 L42.25 644.04 L43.21 643.39 L48.57 637.83 L50.63 635.19 L51.11 632.76 L50.42 631.43 L48.36 629 L47.6 627.61 L47.35 626.49 L47.31 623.15 L46.46 620.9 L42.75 617.52 L41.72 615.27 L41.72 613.97 L41.83 613.07 L41.63 612.22 L40.72 611.06 L39.36 609.8 L39.43 609.28 L40.85 607.01 L45.58 601.13 L46.15 600.42 L47.55 599.04 L49.23 597.94 L58.45 593.65 L59.58 592.91 L61.73 590.93 L63.05 590.21 L64.61 589.91 L65.96 589.39 L66.82 588.4 L66.9 586.69 L66.51 584.83 L65.98 583.69 L64.95 583.07 L61.67 582.5 L60.7 582 L60.01 581.14 L59.48 579.88 L59.31 579.19 L59.37 578.74 L59.89 577.75 L60.14 577.5 L60.93 577.14 L61.22 576.85 L61.28 576.42 L61.07 576.08 L60.78 575.77 L60.59 575.43 L59.77 569.18 L59.32 568.38 L57.53 567.08 L56.2 564.93 L57.29 562.86 L59.64 561.12 L62.12 559.95 L73.8 556.9 L74.39 556.48 L74.68 555.67 L74.57 555.15 L73.7 553.29 L73.37 552.28 L72.9 549.09 L72.9 547.59 L73.37 546.69 L75.49 545.29 L76.65 544.25 L76.98 543.29 L77.03 542.2 L77.34 540.78 L78.01 539.57 L83.25 534.24 L84.4 533.32 L85.73 532.61 L87.7 531.86 L88.15 531.33 L90.75 526.68 L91.19 525.39 L91.93 518.63 L91.82 516.69 L91.24 514.88 L89.99 513.23 L88.75 511.93 L87.77 510.42 L87.35 508.75 L87.77 506.94 L88.87 505.63 L93.45 502.87 L97.17 498.49 L98.69 497.47 L100.12 497.3 L102.88 496.97 L111.82 498.81 L116.19 498.4 L123.82 495.68 L127.63 494.87 L134.31 494.88 L141.37 495.92 L148.14 498.17 L149.71 498.24 L150.4 496.49 L150.4 496.45 L150.4 493.09 L150.39 479.59 L150.37 466.09 L150.36 452.59 L150.35 439.1 L150.34 425.59 L150.33 412.1 L150.32 398.6 L150.31 385.1 L150.3 371.6 L150.28 358.1 L150.27 344.6 L150.26 331.1 L150.25 317.61 L150.24 304.11 L150.23 290.61 L150.22 277.11 L150.22 269.85 L150.22 262.6 L150.22 255.35 L150.22 248.09 L159.58 248.09 L164.55 248.1 L171.11 248.1 L178.88 248.11 L186.12 248.12 L193.22 248.12 L201.7 248.12 L207.56 248.12 L207.68 248.11 L207.81 248.09 L207.94 248.08 L208.07 248.06 L208.12 247.98 L208.18 247.89 L208.23 247.8 L208.29 247.71 L208.29 247.34 L208.29 240.85 L208.29 235.33 L208.29 229.8 L208.3 224.27 L208.3 218.75 L208.3 211.51 L208.3 204.27 L208.31 197.03 L208.31 189.79 L208.31 182.55 L208.32 175.31 L208.32 168.07 L208.32 160.83 L208.32 153.59 L208.32 146.35 L208.33 139.11 L208.33 131.87 L213.98 131.87 L219.64 131.87 L225.3 131.87 L230.96 131.87 L236.61 131.87 L242.27 131.88 L247.92 131.88 L253.58 131.88 L259.23 131.88 L264.89 131.88 L270.55 131.88 L276.2 131.88 L281.86 131.88 L287.51 131.88 L293.16 131.88 L298.82 131.88 L304.48 131.88 L310.14 131.89 L315.79 131.89 L321.45 131.89 L327.1 131.89 L332.76 131.89 L338.42 131.89 L344.07 131.89 L349.73 131.89 L355.38 131.89 L361.04 131.89 L366.7 131.89 L372.35 131.89 L378.01 131.9 L383.67 131.9 L389.32 131.9 L394.97 131.9 L400.63 131.9 L406.29 131.9 L411.94 131.9 L417.6 131.9 L423.26 131.9 L428.92 131.9 L434.58 131.91 L440.23 131.91 L445.89 131.91 L451.54 131.91 L457.2 131.91 L462.85 131.91 L468.51 131.91 L474.16 131.91 L479.82 131.91 L485.48 131.91 L491.13 131.91 L496.78 131.92 L502.44 131.92 L508.09 131.92 L513.76 131.92 L519.42 131.92 L525.07 131.92 L530.72 131.92 L536.38 131.92 L542.04 131.92 L547.69 131.92 L553.35 131.92 L559.01 131.92 L564.67 131.93 L570.32 131.93 L572.54 131.93 L573.31 131.5 L576.18 126.04 L576.38 125.66 L579 120.67 L580.5 119.14 L581.59 118.6 L582.7 118.41 L583.82 118.57 L584.89 119.08 L586.17 120.24 L586.69 121.53 L586.61 122.99 L585.27 126.71 L583.41 131.87 L586.86 131.87 L588.43 131.87 L594.37 131.87 L600.33 131.87 L606.27 131.87 L612.22 131.87 L618.17 131.87 L624.12 131.87 L630.07 131.87 L636.02 131.87 L641.97 131.87 L646.7 131.87 L647.92 131.87 L653.87 131.87 L659.82 131.87 L665.77 131.87 L671.72 131.87 L677.67 131.87 L683.56 131.87 L683.62 131.87 L684.86 131.87 L691.98 137.24 L699.88 143.19 L706.79 148.4 L706.93 148.5 L724.69 146.14 L732.4 145.12 L737.34 131.86 L737.71 131.86 L751.23 131.86 L764.75 131.86 L778.27 131.86 L791.79 131.86 L805.31 131.86 L818.83 131.86 L832.36 131.85 L845.88 131.85 L859.41 131.85 L872.93 131.85 L886.45 131.85 L900.03 131.85 L899.86 132.72 L899.7 132.99 L899.45 133.11 L898.53 133.23 L897.5 133.57 L898.89 134.54 L899.44 135.31 L899.48 142.34 L900.8 150.32 L900.28 151.93 L901.1 152.46 L901.29 153.14 L901.33 153.85 L901.69 154.49 L902.33 155.11 L902.75 155.66 L905.87 162.64 L913.4 173.55 L918.36 177.97 L924.54 185.39 L924.98 186.36 L924.86 187.5 L924.46 188.5 L923.72 188.98 L922.61 188.54 L921.44 189.36 L920.39 188.54 L918.8 185.94 L918.4 185.44 L917.96 184.71 L917.79 184.06 L918.2 183.78 L918.96 183.98 L919.37 184.46 L919.64 185.04 L919.99 185.55 L921.32 186.52 L922.11 186.82 L922.61 186.56 L922.49 186.08 L921.05 184.54 L920.14 182.29 L919.52 181.48 L918.6 181.76 L916.97 180.61 L916.5 181.22 L916.04 181.11 L915.67 180.54 L915.43 179.78 L915.57 179.08 L915.95 178.4 L916.06 177.72 L915.43 177 L913.85 176.68 L912.89 177.65 L912.51 179.2 L912.65 180.61 L912.94 180.93 L913.66 180.98 L913.8 181.36 L913.6 182.06 L913.41 182.55 L913.66 184.03 L913.64 184.71 L913.41 185.37 L912.82 185.92 L912.23 186.09 L911.83 186.39 L911.82 187.35 L912.11 187.88 L913.8 189.73 L915.35 193.15 L916.09 196.79 L916.62 204.45 L917.46 208.06 L920.05 214.99 L920.19 218.77 L920.03 219.7 L919.72 220.62 L919.16 221.17 L917.39 220.93 L917.19 221.68 L917.41 223.41 L916.97 227.54 L917.39 229.89 L917.41 230.75 L918.78 234.15 L919.24 236.2 L919.55 238.1 L919.86 240.88 L918.98 243.09 L919 243.48 L918.78 244.12 L918.07 244.95 L917.8 245.5 L917.77 247.06 L918.19 249.04 L921.87 258.25 L922.21 260.22 L922.21 264 L922.1 265.04 L921.79 265.68 L920.82 266.98 L920.64 267.86 L921.05 271.36 L920.96 272.46 L921.05 272.95 L921.28 273.5 L922.21 275 L923.4 278.32 L925.71 290.67 L926.17 296.67 L926.39 297.36 L926.87 297.76 L927.41 298.07 L927.76 298.49 L927.76 298.87 L927.46 299.64 L927.44 300.04 L928.85 301.92 L929.55 304.81 L930.76 308.54 L931.55 310.97 L932.03 313.98 L932.8 315.03 L934.06 317.25 L935.4 319.45 L937.32 321.14 L937.64 321.82 L938.16 322.45 L938.82 322.8 L939.52 322.58 L940.17 322.22 L940.6 322.32 L944.07 321.82 L946 321 L946.27 322.07 L947.57 322.73 L948.65 322.92 L949.84 322.84 L950.21 323.51 L950.35 324.46 L951.28 325.28 L950.85 327.52 L951.75 327.06 L952.42 326.86 L953.08 327.34 L954.03 328.28 L960.58 330.06 L962.99 332.27 L964.61 334.88 L967.13 337.26 L968.73 338.27 L971.26 339.22 L971.99 340.04 L971.26 341.05 L969.73 341.81 L969.33 343.83 L970.93 347.11 L973.72 349.57 L976.85 350.26 L979.17 349.88 L979.5 347.74 L980.67 347.4 L982.7 346.24 L983.06 346.86 L982.57 347.35 L981.75 347.77 L981.15 348.19 L981.06 348.66 L981.11 349.3 L980.96 349.99 L980.28 350.65 L979.4 350.89 L978.62 350.84 L977.98 350.89 L977.54 351.41 L978.29 351.4 L980.32 351.04 L981.08 351.18 L981.61 351.49 L982.09 351.87 L982.7 352.2 L983.47 352.38 L985.1 352.58 L985.89 352.83 L986.77 352.98 L987.37 352.71 L987.46 352.25 L986.74 351.83 L987.66 351.03 L988.8 352.15 L990.66 355.01 L990.12 355.79 L991.09 356.36 L992.55 356.47 L993.48 355.84 L994.1 356.73 L994.3 359.04 L994.67 359.77 L995.82 359.95 L996.39 359.07 L996.29 357.74 L995.47 356.6 L996.45 357.18 L998.87 359.58 L999.26 360.47 L999.25 361.39 L999.39 361.95 L1000 363.25 L999.87 363.78 L991.6 370.41 L989.99 372.66 L986.49 381.56 L984.88 384.05 L983.71 384.93 L980.82 386.27 L979.82 387.16 L979.53 388.3 L979.6 389.53 L979.45 390.68 L978.47 391.62 L977.09 391.82 L976.07 391.21 L975.18 390.35 L974.24 389.78 L972.19 390.41 L971.85 390.47 L971.59 390.98 L971.66 391.35 L971.81 391.75 L971.79 392.36 L971.18 393.47 L970.22 394.28 L969.35 394.29 L969.02 393.03 L969.1 391.87 L969.04 390.9 L968.5 390.32 L967.16 390.32 L965.8 390.79 L965.75 390.83 L961.82 393.36 L960 395.61 L958.86 396.45 L957.47 396.76 L956.14 396.37 L954.4 394.76 L953.22 394.44 L951.19 395.49 L948.66 399.87 L946.29 401.05 L943.94 401.37 L936.24 403.66 L935.62 404.03 L935.48 404.69 L936.12 407.36 L936.18 408.41 L935.91 410.84 L935.54 412.02 L934.27 414.21 L933.99 415.51 L933.51 416.67 L930.24 420.43 L924.8 418.96 L923.12 419.09 L920.36 420.74 L918.6 420.85 L917.73 420.73 L914.58 421.22 L914 421.12 L911.76 419.8 L911.16 419.58 L909.66 419.34 L908.62 418.93 L907.74 418.35 L906.82 417.95 L905.64 418.1 L905.25 418.54 L905.25 418.56 L905.13 419.03 L905.26 419.54 L906.41 421.09 L906.62 422.2 L906.35 423.32 L904.94 425.27 L905.14 425.9 L905.74 426.47 L906.25 427.19 L906.39 427.93 L906.28 430.26 L906.36 430.49 L906.71 431.01 L906.78 431.35 L906.67 431.59 L906.25 432.05 L906.14 432.31 L905.92 435.79 L904.49 439.28 L903.86 440.08 L901.95 441.41 L901.07 442.18 L900.54 443.28 L900.44 444.31 L900.55 446.2 L900.37 447.32 L899.66 449.64 L899.62 450.44 L900.01 451.79 L900.77 452.81 L901.68 453.75 L902.51 454.82 L902.57 454.98 L902.94 455.99 L902.91 457.02 L902.71 458.06 L902.62 459.3 L902.92 460.52 L903.98 462.88 L904.13 464.11 L903.54 465.59 L901.11 468.02 L900.16 469.54 L898.23 474.84 L895.61 482.07 L892.82 489.73 L891.26 492.22 L888.39 495.1 L887.67 496.38 L884.52 507.51 L884.37 509.97 L885.17 512.5 L883.26 513.74 L882.13 515.54 L879.18 523.99 L878.13 525.6 L873.85 529.63 L873.38 530.65 L873.3 531.92 L873.96 537.44 L875.15 547.17 L875.54 550.39 L876.22 556.02 L877.11 563.32 L877.98 570.52 L879.27 581.2 L874.05 597.03 L873.79 598.26 L873.81 599.74 L874.13 601.17 L875.14 604.07 L875.3 606.97 L874.25 609.52 L871.83 615.34 L871.62 616.51 L871.42 619.8 L870.88 621.45 L862.25 633.61 L856.64 652.75 L856.72 653.86 L857.18 654.78 L857.37 655.28 L857.39 655.78 L856.87 656.63 L856 657.48 L855.33 658.47 L855.38 659.76 L856.74 662.08 L856.99 662.94 L857 664.36 L855.86 670.82 L855.36 671.96 L854.46 672.32 L852.87 671.89 L852.34 671.61 L852.01 671.36 L851.62 671.17 L850.91 671.05 L850.42 671.07 L832.89 673.55 L831.4 674.04 L831.32 674.07 L830.53 674.43 L830.32 674.62 L830.33 674.93 L829.93 676.41 L829.85 677.03 L829.64 677.63 L829.06 678.25 L828.56 678.46 L827.43 678.54 L826.94 678.74 L826.41 679.32 L815.48 697.23 L814.86 698.86 L814.71 700.48 L814.54 701.2 L814 701.99 L813.4 702.48 L812.13 703.13 L811.56 703.6 L811.12 704.26 L810.09 706.8 L809.51 709.99 L809.01 711.37 L807.87 712.65 L805.7 713.88 L805.17 714.39 L805.01 714.93 L805 715.19 L804.96 716.25 L804.84 716.82 L803.09 718.76 L799.2 720.23 L797.93 720.71 L795.68 722.15 L794.79 723.27 L794 724.61 L793.37 726.03 L792.96 727.41 L792.92 728.59 L793.36 730.79 L793.25 733.16 L793.67 734.36 L794.89 736.73 L795.03 737.81 L794.81 738.96 L787.49 754.89 L787.32 756.14 L787.89 757.72 L788.9 758.84 L789.64 760.03 L789.42 761.84 L785.58 772.95 L785.54 773.59 L786.1 774.35 L787.82 775.6 L788.14 776.47 L787.7 778.46 L786.72 779.85 L783.58 782.21 L782.52 783.2 L782.28 783.9 L782.27 784.6 L781.92 785.64 L781.18 786.6 L780.54 786.68 L779.83 786.47 L778.86 786.57 L778.14 787.19 L777.37 788.98 L776.9 789.44 L776.29 789.22 L776.21 788.37 L776.44 786.62 L776.07 785.74 L775.31 785.08 L773.6 783.99 L766.57 777.88 L765.85 777.59 L764.87 777.96 L757.86 782.73 L756.86 783.6 L755.94 784.82 L753.69 789.12 L748.69 796.11 L748.24 798.17 L748.5 800.57 L751.33 813.36 L751.39 815.98 L750.9 818.44 L750.71 818.78 L750.15 819.35 L749.99 819.66 L749.98 820.32 L750.17 821.73 L750.08 822.38 L748.77 824.32 L745.35 827.46 L738.16 847.59 L736.34 856.22 L736.56 860.67 L726.69 860.63 L726.51 860.56 L726.34 860.39 L726.17 860.11 L725.98 859.73 L725.56 858.08 L725.34 855.51 L725.7 851.07 L726.92 845.79 L730.65 838.37 L730.84 837.76 L730.89 837.41 L730.89 837.01 L730.55 835.69 L730.11 834.54 L729.9 832.81 L730.55 828.96 L730.61 827.77 L730.52 826.23 L730.23 825.25 L727.62 818.83 L726.76 817.81 L714.17 807.59 L701.59 797.37 L696.99 791.83 L696.49 791.45 L695.87 791.15 L683.09 786.49 L682.47 786.03 L682.55 785.34 L682.95 784.46 L684.48 781.77 L684.7 781.06 L684.92 779.97 L682.03 758.43 L679.15 736.89 L679.17 736.04 L679.43 735.48 L679.65 735.13 L680.41 734.21 L681.08 733.26 L681.83 731.6 L682.03 730.98 L682.82 723.28 L682.76 716.54 L686.13 705.3 L686.49 700.52 L658.75 700.18 L658.58 700.43 L658.56 700.72 L658.63 701.06 L658.67 701.42 L658.65 702.17 L658.42 703.57 L658.37 704.3 L658.4 705.05 L658.82 707.75 L659.55 709.77 L659.67 710.45 L659.7 711.19 L659.61 712.59 L640.3 712.67 L621 712.76 L636.28 729.65 L636.46 730 L636.73 730.91 L636.84 731.59 L637.13 737.53 L636.31 746.94 L636.49 752.99 L637.38 756.91 L641.52 764.64 L641.25 766.08 L640.28 767.9 L626.59 779.39 L612.9 790.88 L612.14 791.96 L608.33 801.54 L604.71 807.11 L603.1 808.71 L596.74 816.52 L584.25 828.78 L571.75 841.04 L567.66 842.69 L555.21 843.36 L555.19 843.36 L548.63 843.54 L547.88 843.73 L546.76 844.15 L546.08 844.78 L545.27 845.25 L544.46 845 L543.53 844.33 L528.15 830.6 L514.45 821.93 L500.74 813.26 L498.12 814.83 L482.61 822.29 L479.41 824.23 L477.64 825.6 L477.55 833.95 L474.85 838.19 L469.95 842.82 L456.54 845.76 L449.56 848.28 L442.43 852.03 L441.26 852.97 L436.87 856.34 L433.12 860.01 L431.92 862.25 L431.84 864.72 L432.08 866.79 L432.8 868.23 L432.73 868.23 L409.55 868.03 L386.38 867.83 L383.59 864.72 L377.66 852.49 L377.07 852.72 L376.11 852.89 L370.37 853.19 L362.93 852.11 L362.6 852.14 L361.39 852.46 L361.06 852.5 L356.34 851.91 L348.03 851.94 L345.36 851.48 L330.32 851.82 L307.88 859.37 L307.26 859.43 L303.9 859.16 L302.45 858.5 L299.89 856.84 L288.93 844.1 L277.96 831.36 L273.5 829.68 L273.48 829.66 L272.66 828.81 L271.97 827.95 L268.5 822.3 L268.16 821.84 L267.95 821.65 L267.58 821.36 L267.42 821.28 L265.84 820.82 L264.96 820.44 L262.86 819.22 L262.41 818.85 L262.04 818.44 L261.88 818.19 L261.77 817.87 L261.42 808.88 L261.35 808.56 L261.23 808.29 L260.94 807.8 L258.41 804.69 L258.2 804.53 L257.56 804.59 L254.97 805.27 L253.75 805.86 L253.23 806 L252.77 806.05 L250.43 805.96 L250.1 806.02 L249.18 806.27 L247.85 806.48 L245.98 806.5 L245.64 806.55 L243.14 807.16 L238.85 808.66 L238.67 808.68 L237.94 808.89 L237.28 808.99 L234.95 808.91 L234.24 808.98 L233.58 809.1 L232.72 809.39 L232.17 809.64 L231.58 809.83 L230.88 809.9 L230.51 809.91 L229.82 809.98 L229.53 810.07 L228.45 810.58 L228.13 810.63 L227.79 810.64 L227.16 810.55 L226.84 810.57 L226.28 810.78 L225.97 810.85 L225.61 810.84 L225.27 810.78 L224.94 810.68 L224.35 810.42 L224.03 810.32 L223.34 810.2 L222.94 810.24 L222.53 810.34 L222.01 810.55 L221.62 810.6 L220.94 810.52 L220.61 810.53 L219.2 811.07 L218.54 811.18 L217.05 811.06 L216.42 811.19 L215.58 811.52 L214.66 811.79 L214.3 811.93 L213.89 812.3 L213.31 813 L210.41 819.21 L210.26 819.83 L210.21 820.31 L210.34 820.95 L210.43 821.25 L210.9 822.34 L211.08 822.94 L211.12 823.27 L211.1 823.63 L211.03 823.97 L210.4 825.68 L208.88 828.8 L208.54 829.81 L208.04 830.87 L207.55 831.53 L206.77 832.33 L205.17 834.48 L204.41 835.33 L202.4 836.53 L200.4 838.18 L199.9 838.47 L199.4 838.7 L198.77 838.81 L198.22 838.85 L198.01 838.9 L197.78 839.13 L197.59 839.5 L197.37 840.69 L197.47 856.16 L197.36 856.85 L196.94 858.18 L193.37 862.15 L191.69 863.67 L191.23 864.35 L190.83 865.39 L189.71 876.5 L189.65 876.8 L189.43 877.37 L184.16 886.23 L183.81 887.1 L183.75 887.48 L183.75 893.67 L183.43 894.06 L182.85 894.37 L180 895.32 L174.72 895.87 L173.39 896.14 L167.04 900.12 L165.28 900.95 L161.94 903.48 L161.59 903.95 L161.46 904.78 L161.2 905.14 L157.93 905.59 L151.86 904.59 L150.22 904.86 L149.1 904.7 L146.79 903.74 L143.56 904.07 L139.88 903.24 L137.87 903.29 L136.05 904.12 L135.1 904.41 L133.24 903.9 L131.37 903.94 L130.62 903.64 L129.75 903.04 L128.83 902.65 L127.85 902.54 L126.78 902.75 L125.97 903.2 L124.6 904.25 L123.74 904.44 L122.55 903.9 L121.67 902.63 L121.19 901.07 L121.22 899.68 L121.98 898.16 L124.38 895.48 L125.36 893.88 L126.08 890.57 L126.17 888.55 L125.74 887.3 L124.72 887.25 L122.56 889.35 L120.97 889.48 L119.42 888.59 L118.66 887.41 L118.51 885.99 L119.79 878.6 L120.09 878.16 L120.75 877.17 L121.63 876.82 L123.51 876.9 L124.45 876.74 L125.12 876.32 L126.4 875.04 L128.64 872.24 L129.41 871.65 L129.93 870.96 L129.84 870.11 L129.25 868.33 L129.33 867.29 L130.78 862.77 L130.75 862.39 L130.43 861.92 L130.09 861.79 L129.66 861.8 L129.22 861.07 L129.06 860.52 L129.13 858.71 L129.01 857.95 L128.45 856.51 L128.41 855.87 L129.13 854.19 L131.28 850.92 L132.07 849.2 L132.36 846.97 L130.66 836.93 L129.45 834.33 L119.78 818.88 L110.11 803.42 L99.55 793.26 L93.51 789.06 L85.24 777.15 L85.11 775.56 Z M922.21 198.14 L922.81 198.54 L923.02 198.68 L923.27 199.43 L922.59 203.31 L922.16 204.24 L921.58 204.25 L920.98 202.93 L920.94 201.1 L921.37 199.32 L922.21 198.14 Z"/>
</g>
</svg>
