<svg viewBox="0 0 1024 1024" fill="none" xmlns="http://www.w3.org/2000/svg">
  <g transform="translate(48.761905 0.000000) scale(48.761905)">
<path d="M2 19.37L0.619995 20.7L0.190002 19.42L0 18.9401L2.51996 16.42L3.70996 14.85L4.33002 15.52V15.76L2 18.28V19.37ZM17.78 8.57996L18.16 12L17.35 13.47L16.87 15.1801L16.68 16.46L16.11 16.41L14.35 17.36L12.02 18.26L9.45001 18.5L9.07001 18.21L8.96997 17.78L9.72998 15.59L10.02 14.54L11.11 13.45L12.68 12.5L13.35 12.26L13.25 11.83L12.3 11.21L11.3 10.88L10.35 11.21L10.06 11.12L9.95996 10.83L10.29 10.45L10.43 9.73999L10.29 8.5L10.19 7.03003L10 5.89001L10.57 3.98999L10.71 3.08997L11.42 1.19006L13.13 0L14.6 0.329956L15.36 0.420044L15.69 0.660034L15.88 1.32996L16.97 2.08997L17.87 2.18005L18.16 4.65002L17.68 6.73999L17.78 8.57996Z" fill="black"/>

  </g>
</svg>
