<svg xmlns="http://www.w3.org/2000/svg" viewBox="33.370277 -33.423068 23.558442 18.337237">
  <path d="M 42.779332 -16.347891 L 42.649573 -16.774635 L 42.347989 -17.075806 L 42.270888 -17.474722 L 41.754382 -17.833046 L 41.221391 -18.671600 L 40.939341 -19.486485 L 40.247652 -20.174635 L 39.801685 -20.338862 L 39.139399 -21.291905 L 39.023696 -21.986875 L 39.066329 -22.579656 L 38.492772 -23.688451 L 38.023860 -24.078686 L 37.483635 -24.285495 L 37.154818 -24.858483 L 37.209491 -25.084542 L 36.931627 -25.602959 L 36.639604 -25.826228 L 36.249137 -26.570136 L 35.640182 -27.376520 L 35.130187 -28.063352 L 34.632336 -28.058546 L 34.787779 -28.607427 L 34.832220 -28.957483 L 34.956037 -29.356555 L 36.068941 -29.197495 L 36.501214 -29.505254 L 36.740528 -29.865283 L 37.503582 -30.003776 L 37.668120 -30.338665 L 37.998849 -30.508500 L 37.002166 -31.508413 L 39.004886 -32.010217 L 39.195468 -32.161009 L 40.399994 -31.889992 L 41.889981 -31.190009 L 44.709499 -29.178891 L 46.568713 -29.099025 L 47.459822 -29.002519 L 47.708851 -28.526063 L 48.416094 -28.552004 L 48.807595 -27.689628 L 49.299554 -27.461218 L 49.470914 -27.109999 L 50.152422 -26.689663 L 50.212935 -26.277027 L 50.113303 -25.943972 L 50.239859 -25.608050 L 50.527387 -25.327808 L 50.660557 -24.999896 L 50.810108 -24.754743 L 51.112415 -24.556331 L 51.389608 -24.627386 L 51.579519 -24.245497 L 51.617708 -24.014219 L 52.000733 -23.001154 L 55.006803 -22.496948 L 55.208341 -22.708330 L 55.666659 -22.000001 L 54.999982 -19.999994 L 52.000010 -19.000003 L 49.116672 -18.616668 L 48.183344 -18.166669 L 47.466695 -17.116682 L 47.000005 -16.949999 L 46.749994 -17.283338 L 46.366659 -17.233315 L 45.399999 -17.333335 L 45.216651 -17.433329 L 44.062613 -17.410359 L 43.791519 -17.319977 L 43.380794 -17.579987 L 43.115798 -17.088440 L 43.218375 -16.666890 L 42.779332 -16.347891 Z" fill="#000" stroke="none"/>
</svg>
