<svg viewBox="0 0 1024 1024" fill="none" xmlns="http://www.w3.org/2000/svg">
  <g transform="translate(0.000000 93.090909) scale(23.272727)">
<path fill-rule="evenodd" clip-rule="evenodd" d="M12.2999 5.28998L13.4399 5.76996L16.9399 5.04999L20.4299 2.26996L22.7899 3.39996L24.5399 5.04999H27.6699L29.22 3.60999L29.33 0.619995L32.85 0L35.96 4.64001L38.6599 6.79999L39.1799 9.37L41.0399 12.25L42.8099 18.43L43.4299 22.65L42.1799 25.63L41.46 28.41L39.6899 30.16L37.4099 31.5L35.0299 30.99L34.1899 30.03V28.82L31.71 27.39L30.6699 24.1L28.1899 23.69L26.33 22.05H24.47L24.8799 25.95L22.1899 32.51V34.56L17.8799 36L15.83 33.95L14.3899 34.36L13.1699 35.8L9.46997 34.36L7.82996 30.87L5.57996 30.05H1.87988L0 30.52L0.439941 27.23L3.67993 14.31L7.67993 9.53998L12.2999 5.28998Z" fill="black"/>

  </g>
</svg>
